<svg width="343" height="320" viewBox="0 0 343 320" fill="none" xmlns="http://www.w3.org/2000/svg">
<g clip-path="url(#clip0_3546_19800)">
<g opacity="0.2" filter="url(#filter0_f_3546_19800)">
<path d="M112.118 198.812L116.601 183.295L115.901 198.892L125.513 197.771L118.251 203.066L127.19 212.408L114.374 206.776L108.738 219.703L108.856 207.372L95.1165 211.701L108.088 201.895L101.949 192.919L112.118 198.812Z" fill="#C9E7FF"/>
</g>
<g opacity="0.2" filter="url(#filter1_f_3546_19800)">
<path d="M275.996 54.0099L266.38 6.09654L286.265 48.948L310.506 32.5242L298.398 56.8731L335.434 69.4805L293.166 72.2427L296.076 114.811L279.186 81.5433L248.34 112.337L269.481 67.9102L240.474 52.3812L275.996 54.0099Z" fill="#77C0FA"/>
</g>
<g opacity="0.2" filter="url(#filter2_f_3546_19800)">
<path d="M41.0739 248.353L68.5156 242.845L43.973 254.234L53.3795 268.117L39.434 261.183L32.2134 282.395L30.6313 258.186L6.25085 259.853L25.3046 250.18L7.66767 232.513L33.1127 244.621L42.0067 228.008L41.0739 248.353Z" fill="#77C0FA"/>
</g>
<g opacity="0.5">
<rect x="19" y="60" width="85.5841" height="27" rx="13.5" fill="#3B76E5"/>
<path d="M37.5836 70.6762C37.5836 71.7098 38.1848 72.7434 39.4398 73.218L38.8176 74.1145C37.9686 73.7875 37.3779 73.1811 37.0352 72.4375C36.6871 73.2918 36.0648 74.0195 35.1578 74.3992L34.525 73.5027C35.8328 72.9227 36.4445 71.7309 36.4551 70.6762V69.4949H37.5836V70.6762ZM42.7621 68.9148V74.7578H41.6441V72.2793H40.6949V74.4625H39.598V69.0941H40.6949V71.3195H41.6441V68.9148H42.7621ZM39.5453 74.916C41.5387 74.916 42.8043 75.5699 42.8148 76.6668C42.8043 77.7637 41.5387 78.4281 39.5453 78.4281C37.5309 78.4281 36.2758 77.7637 36.2758 76.6668C36.2758 75.5699 37.5309 74.916 39.5453 74.916ZM39.5453 75.802C38.227 75.802 37.4465 76.1078 37.4465 76.6668C37.4465 77.2363 38.227 77.5316 39.5453 77.5316C40.8531 77.5316 41.6336 77.2363 41.6336 76.6668C41.6336 76.1078 40.8531 75.802 39.5453 75.802ZM46.4382 69.2102C47.8831 69.2102 48.9589 70.1066 48.9694 71.3617C48.9589 72.6273 47.8831 73.5133 46.4382 73.5133C44.9827 73.5133 43.9069 72.6273 43.9069 71.3617C43.9069 70.1066 44.9827 69.2102 46.4382 69.2102ZM46.4382 70.1805C45.6366 70.1805 45.046 70.634 45.046 71.3617C45.046 72.1 45.6366 72.5641 46.4382 72.5641C47.2397 72.5641 47.8303 72.1 47.8303 71.3617C47.8303 70.634 47.2397 70.1805 46.4382 70.1805ZM51.68 68.9043V73.7242H50.4987V68.9043H51.68ZM51.68 74.1355V76.6246H46.5225V77.3945H51.9647V78.3227H45.3729V75.7598H50.5093V75.0531H45.3518V74.1355H51.68ZM63.9153 73.6293V74.568H60.1395V75.475H62.85V78.4176H61.6793V76.4137H56.1844V75.475H58.9793V74.568H55.2246V73.6293H63.9153ZM60.1395 68.8937V69.8008H63.061V70.7184H60.2239C60.3504 71.5305 61.4684 72.1949 63.4828 72.3426L63.1137 73.2285C61.4156 73.0861 60.1553 72.5588 59.5594 71.7309C58.9635 72.5588 57.6979 73.0861 56.0051 73.2285L55.636 72.3426C57.6293 72.1949 58.7578 71.5305 58.8949 70.7184H56.0789V69.8008H58.9793V68.8937H60.1395ZM71.8206 68.9043V72.7012H73.2866V73.6715H71.8206V78.4387H70.6604V68.9043H71.8206ZM69.9222 70.3703V71.309H64.3007V70.3703H66.5577V69.0414H67.7284V70.3703H69.9222ZM67.1483 71.9312C68.5194 71.9312 69.5425 72.8594 69.5425 74.1777C69.5425 75.4961 68.5194 76.4137 67.1483 76.4137C65.7562 76.4137 64.7331 75.4961 64.7437 74.1777C64.7331 72.8594 65.7562 71.9312 67.1483 71.9312ZM67.1483 72.891C66.3995 72.891 65.8616 73.3973 65.8616 74.1777C65.8616 74.9582 66.3995 75.4539 67.1483 75.4434C67.8761 75.4539 68.414 74.9582 68.4245 74.1777C68.414 73.3973 67.8761 72.891 67.1483 72.891ZM78.1334 70.423V71.3617H73.4611V70.423H75.233V69.1785H76.3931V70.423H78.1334ZM75.8131 71.868C77.026 71.868 77.8908 72.7855 77.8908 74.0828C77.8908 75.4012 77.026 76.3293 75.8131 76.3293C74.6107 76.3293 73.7248 75.4012 73.7353 74.0828C73.7248 72.7855 74.6107 71.868 75.8131 71.868ZM75.8131 72.8383C75.1908 72.8383 74.7584 73.334 74.7689 74.0828C74.7584 74.8527 75.1908 75.3379 75.8131 75.3273C76.4248 75.3379 76.8572 74.8527 76.8572 74.0828C76.8572 73.334 76.4248 72.8383 75.8131 72.8383ZM81.6771 68.9043V78.4387H80.5592V73.777H79.631V78.0063H78.5342V69.1047H79.631V72.8277H80.5592V68.9043H81.6771ZM84.5727 69.8641L84.4567 75.2535H83.2649L83.1383 69.8641H84.5727ZM83.8661 77.5844C83.4126 77.5844 83.0434 77.2152 83.0434 76.7617C83.0434 76.3187 83.4126 75.9496 83.8661 75.9496C84.2985 75.9496 84.6782 76.3187 84.6782 76.7617C84.6782 77.2152 84.2985 77.5844 83.8661 77.5844ZM87.4999 69.8641L87.3839 75.2535H86.1921L86.0656 69.8641H87.4999ZM86.7933 77.5844C86.3398 77.5844 85.9706 77.2152 85.9706 76.7617C85.9706 76.3187 86.3398 75.9496 86.7933 75.9496C87.2257 75.9496 87.6054 76.3187 87.6054 76.7617C87.6054 77.2152 87.2257 77.5844 86.7933 77.5844Z" fill="#DCDCDC"/>
</g>
<rect x="55" y="37" width="84" height="35.3125" rx="17.6562" fill="white"/>
<path d="M86.78 56.3215H81.8418V57.5078H85.3868V61.3563H83.8557V58.7355H76.6691V57.5078H80.3245V56.3215H75.4138V55.0939H86.78V56.3215ZM81.8418 50.0867H85.6627V51.2867H81.9521C82.0073 51.6454 82.2073 51.9741 82.5522 52.273C82.897 52.5719 83.3798 52.8202 84.0005 53.0179C84.6213 53.2156 85.3593 53.3466 86.2145 53.411L85.7317 54.5697C84.619 54.4777 83.6626 54.2639 82.8625 53.9283C82.0671 53.5926 81.474 53.1535 81.0831 52.611C80.6923 53.1489 80.0969 53.588 79.2968 53.9283C78.4968 54.2639 77.5427 54.4777 76.4346 54.5697L75.9518 53.411C76.7978 53.3466 77.5312 53.2156 78.1519 53.0179C78.7726 52.8202 79.2554 52.5719 79.6003 52.273C79.9451 51.9741 80.1474 51.6454 80.2072 51.2867H76.5311V50.0867H80.3245V48.9004H81.8418V50.0867ZM97.1192 53.88H99.0366V55.149H97.1192V61.3839H95.6019V48.9142H97.1192V53.88ZM94.6363 52.0592H87.2841V50.8315H90.236V49.0935H91.7671V50.8315H94.6363V52.0592ZM91.0085 52.873C91.6016 52.873 92.135 52.9995 92.6086 53.2524C93.0868 53.5007 93.4615 53.8478 93.7328 54.2938C94.0041 54.7398 94.1397 55.2456 94.1397 55.8112C94.1397 56.3767 94.0041 56.8825 93.7328 57.3285C93.4615 57.7699 93.0868 58.1147 92.6086 58.363C92.135 58.6113 91.6016 58.7355 91.0085 58.7355C90.4061 58.7355 89.8659 58.6113 89.3877 58.363C88.9095 58.1147 88.5348 57.7699 88.2635 57.3285C87.9922 56.8825 87.8589 56.3767 87.8635 55.8112C87.8589 55.2456 87.9922 54.7398 88.2635 54.2938C88.5348 53.8478 88.9095 53.5007 89.3877 53.2524C89.8659 52.9995 90.4061 52.873 91.0085 52.873ZM91.0085 54.1283C90.682 54.1283 90.3901 54.1973 90.1326 54.3352C89.8797 54.4731 89.682 54.6709 89.5394 54.9283C89.3969 55.1812 89.3256 55.4755 89.3256 55.8112C89.3256 56.1468 89.3969 56.4411 89.5394 56.694C89.682 56.9423 89.8797 57.1354 90.1326 57.2733C90.3901 57.4067 90.682 57.471 91.0085 57.4664C91.3257 57.471 91.6085 57.4067 91.8568 57.2733C92.1097 57.1354 92.3074 56.9423 92.4499 56.694C92.5971 56.4411 92.6729 56.1468 92.6775 55.8112C92.6729 55.4755 92.5971 55.1812 92.4499 54.9283C92.3074 54.6755 92.1097 54.48 91.8568 54.3421C91.6085 54.1996 91.3257 54.1283 91.0085 54.1283ZM105.375 52.1282H99.2648V50.9005H101.582V49.2728H103.099V50.9005H105.375V52.1282ZM102.341 52.7903C102.865 52.7903 103.332 52.9144 103.741 53.1627C104.155 53.4064 104.477 53.749 104.706 54.1904C104.941 54.6318 105.058 55.1307 105.058 55.687C105.058 56.2526 104.941 56.7583 104.706 57.2043C104.477 57.6503 104.155 57.9998 103.741 58.2527C103.332 58.501 102.865 58.6251 102.341 58.6251C101.821 58.6251 101.355 58.501 100.941 58.2527C100.527 57.9998 100.203 57.6503 99.9683 57.2043C99.7338 56.7583 99.6188 56.2526 99.6234 55.687C99.6188 55.1307 99.7338 54.6318 99.9683 54.1904C100.203 53.749 100.527 53.4064 100.941 53.1627C101.355 52.9144 101.821 52.7903 102.341 52.7903ZM102.341 54.0593C102.07 54.0593 101.83 54.1283 101.624 54.2662C101.417 54.3996 101.256 54.5904 101.141 54.8387C101.026 55.0824 100.971 55.3652 100.975 55.687C100.971 56.0181 101.026 56.3077 101.141 56.556C101.256 56.8043 101.417 56.9951 101.624 57.1285C101.83 57.2572 102.07 57.3193 102.341 57.3147C102.607 57.3193 102.844 57.2572 103.051 57.1285C103.258 56.9951 103.419 56.8043 103.534 56.556C103.649 56.3077 103.706 56.0181 103.706 55.687C103.706 55.3652 103.649 55.0824 103.534 54.8387C103.419 54.5904 103.258 54.3996 103.051 54.2662C102.844 54.1283 102.607 54.0593 102.341 54.0593ZM110.01 61.3839H108.548V55.287H107.334V60.8184H105.9V49.1763H107.334V54.0455H108.548V48.9142H110.01V61.3839ZM113.646 57.2181H112.087L111.921 50.1694H113.797L113.646 57.2181ZM112.873 60.2666C112.68 60.2666 112.501 60.2183 112.335 60.1218C112.17 60.0252 112.039 59.8942 111.942 59.7286C111.845 59.5631 111.797 59.3838 111.797 59.1907C111.797 59.0022 111.845 58.8274 111.942 58.6665C112.039 58.501 112.17 58.3699 112.335 58.2734C112.501 58.1768 112.68 58.1285 112.873 58.1285C113.057 58.1285 113.229 58.1768 113.39 58.2734C113.556 58.3699 113.687 58.501 113.783 58.6665C113.885 58.8274 113.935 59.0022 113.935 59.1907C113.935 59.3838 113.885 59.5631 113.783 59.7286C113.687 59.8942 113.556 60.0252 113.39 60.1218C113.229 60.2183 113.057 60.2666 112.873 60.2666ZM117.474 57.2181H115.915L115.75 50.1694H117.626L117.474 57.2181ZM116.702 60.2666C116.508 60.2666 116.329 60.2183 116.164 60.1218C115.998 60.0252 115.867 59.8942 115.77 59.7286C115.674 59.5631 115.626 59.3838 115.626 59.1907C115.626 59.0022 115.674 58.8274 115.77 58.6665C115.867 58.501 115.998 58.3699 116.164 58.2734C116.329 58.1768 116.508 58.1285 116.702 58.1285C116.885 58.1285 117.058 58.1768 117.219 58.2734C117.384 58.3699 117.515 58.501 117.612 58.6665C117.713 58.8274 117.764 59.0022 117.764 59.1907C117.764 59.3838 117.713 59.5631 117.612 59.7286C117.515 59.8942 117.384 60.0252 117.219 60.1218C117.058 60.2183 116.885 60.2666 116.702 60.2666Z" fill="black"/>
<g opacity="0.2">
<rect x="260" y="183" width="55.4071" height="23.3125" rx="11.6562" fill="white"/>
<path d="M280.98 194.314V195.125H277.72V195.908H280.06V198.449H279.049V196.718H274.305V195.908H276.718V195.125H273.476V194.314H280.98ZM277.72 190.225V191.009H280.242V191.801H277.793C277.902 192.502 278.867 193.076 280.607 193.203L280.288 193.968C278.822 193.845 277.734 193.39 277.219 192.675C276.705 193.39 275.612 193.845 274.15 193.968L273.831 193.203C275.553 193.076 276.527 192.502 276.645 191.801H274.214V191.009H276.718V190.225H277.72ZM287.806 190.234V193.513H289.072V194.351H287.806V198.467H286.804V190.234H287.806ZM286.167 191.5V192.311H281.313V191.5H283.262V190.353H284.272V191.5H286.167ZM283.772 192.848C284.955 192.848 285.839 193.649 285.839 194.788C285.839 195.926 284.955 196.718 283.772 196.718C282.57 196.718 281.686 195.926 281.695 194.788C281.686 193.649 282.57 192.848 283.772 192.848ZM283.772 193.677C283.125 193.677 282.661 194.114 282.661 194.788C282.661 195.462 283.125 195.89 283.772 195.88C284.4 195.89 284.864 195.462 284.873 194.788C284.864 194.114 284.4 193.677 283.772 193.677ZM293.256 191.546V192.356H289.222V191.546H290.752V190.471H291.754V191.546H293.256ZM291.253 192.793C292.3 192.793 293.047 193.586 293.047 194.706C293.047 195.844 292.3 196.645 291.253 196.645C290.215 196.645 289.45 195.844 289.459 194.706C289.45 193.586 290.215 192.793 291.253 192.793ZM291.253 193.631C290.716 193.631 290.342 194.059 290.351 194.706C290.342 195.371 290.716 195.789 291.253 195.78C291.781 195.789 292.154 195.371 292.154 194.706C292.154 194.059 291.781 193.631 291.253 193.631ZM296.316 190.234V198.467H295.351V194.442H294.549V198.093H293.602V190.408H294.549V193.622H295.351V190.234H296.316ZM298.816 191.063L298.716 195.717H297.687L297.578 191.063H298.816ZM298.206 197.729C297.814 197.729 297.496 197.41 297.496 197.019C297.496 196.636 297.814 196.318 298.206 196.318C298.579 196.318 298.907 196.636 298.907 197.019C298.907 197.41 298.579 197.729 298.206 197.729ZM301.344 191.063L301.243 195.717H300.214L300.105 191.063H301.344ZM300.734 197.729C300.342 197.729 300.023 197.41 300.023 197.019C300.023 196.636 300.342 196.318 300.734 196.318C301.107 196.318 301.435 196.636 301.435 197.019C301.435 197.41 301.107 197.729 300.734 197.729Z" fill="black"/>
</g>
<rect x="33.123" y="165.888" width="3.93771" height="9.49605" transform="rotate(-12.5017 33.123 165.888)" fill="#FFDA85"/>
<rect x="288" y="160.646" width="3.93771" height="9.49605" transform="rotate(-42.2282 288 160.646)" fill="#F9A7A7"/>
<rect x="223.788" y="57" width="3.93771" height="7.57562" transform="rotate(30 223.788 57)" fill="#6DBEFF"/>
<rect width="3.93771" height="9.49605" transform="matrix(-0.740474 -0.672086 -0.672086 0.740474 84.2988 133.646)" fill="#F9A7A7"/>
<rect x="258.601" y="138" width="3.93771" height="5.47533" transform="rotate(16.9992 258.601 138)" fill="#FFDA85"/>
<rect width="3.93771" height="5.47533" transform="matrix(-0.956309 0.292358 0.292358 0.956309 306.766 41)" fill="#FFDA85"/>
<rect x="36.6016" y="260" width="3.93771" height="5.47533" transform="rotate(16.9992 36.6016 260)" fill="#F9A7A7"/>
<rect width="3.93771" height="5.47533" transform="matrix(0.956309 -0.292358 -0.292358 -0.956309 54.6016 191.387)" fill="#6DBEFF"/>
<g clip-path="url(#clip1_3546_19800)">
<path d="M160.192 144.63L160.192 148.037C160.192 151.819 158.389 155.374 155.338 157.609L154.623 158.133C153.839 158.707 153.123 159.382 152.503 160.129C150.733 162.259 149.746 164.963 149.746 167.732L149.746 168.887M177.259 141.008L175.212 150.734C174.158 155.737 174.682 160.944 176.711 165.637L178.519 169.818M193.587 133.537L190.769 143.794C189.706 147.664 190.898 151.804 193.857 154.517C194.595 155.193 195.235 155.97 195.757 156.825L196.236 157.609C197.197 159.181 197.874 160.911 198.236 162.718C198.432 163.696 198.531 164.69 198.531 165.688V168.885" stroke="url(#paint0_linear_3546_19800)" stroke-width="12.3592" stroke-linecap="round" stroke-linejoin="round"/>
<path d="M134.198 143.176C134.198 122.582 150.893 105.887 171.488 105.887H176.008C196.602 105.887 213.297 122.582 213.297 143.176C213.297 148.793 208.744 153.346 203.127 153.346H144.368C138.751 153.346 134.198 148.793 134.198 143.176Z" fill="url(#paint1_radial_3546_19800)"/>
<foreignObject x="118.51" y="89.21" width="109.98" height="74.5935"><div xmlns="http://www.w3.org/1999/xhtml" style="backdrop-filter:blur(1.17px);clip-path:url(#bgblur_2_3546_19800_clip_path);height:100%;width:100%"></div></foreignObject><g data-figma-bg-blur-radius="2.34">
<mask id="path-20-inside-1_3546_19800" fill="white">
<path d="M120.85 136.043C123.088 110.858 144.188 91.55 169.473 91.55H177.526C202.811 91.55 223.911 110.858 226.15 136.043V138.935L225.902 141.481L224.667 146.919L224.625 147.049C222.559 153.544 216.758 158.136 209.962 158.656C208.851 158.741 207.733 158.715 206.627 158.577L205.953 158.494C202.251 158.035 198.493 158.468 194.993 159.759L193.614 160.267C189.287 161.862 184.532 161.862 180.204 160.267C175.877 158.672 171.122 158.672 166.795 160.267C162.467 161.862 157.713 161.862 153.385 160.267L152.007 159.759C148.507 158.468 144.749 158.035 141.047 158.494L140.372 158.577C139.266 158.715 138.149 158.741 137.037 158.656C130.241 158.136 124.441 153.544 122.374 147.049L122.333 146.919L121.097 141.481L120.85 138.935V136.043Z"/>
</mask>
<path d="M120.85 136.043C123.088 110.858 144.188 91.55 169.473 91.55H177.526C202.811 91.55 223.911 110.858 226.15 136.043V138.935L225.902 141.481L224.667 146.919L224.625 147.049C222.559 153.544 216.758 158.136 209.962 158.656C208.851 158.741 207.733 158.715 206.627 158.577L205.953 158.494C202.251 158.035 198.493 158.468 194.993 159.759L193.614 160.267C189.287 161.862 184.532 161.862 180.204 160.267C175.877 158.672 171.122 158.672 166.795 160.267C162.467 161.862 157.713 161.862 153.385 160.267L152.007 159.759C148.507 158.468 144.749 158.035 141.047 158.494L140.372 158.577C139.266 158.715 138.149 158.741 137.037 158.656C130.241 158.136 124.441 153.544 122.374 147.049L122.333 146.919L121.097 141.481L120.85 138.935V136.043Z" fill="url(#paint2_radial_3546_19800)" fill-opacity="0.2"/>
<g clip-path="url(#paint3_angular_3546_19800_clip_path)" data-figma-skip-parse="true" mask="url(#path-20-inside-1_3546_19800)"><g transform="matrix(0 0.0355944 -0.05265 0 173.5 127.144)"><foreignObject x="-1013.89" y="-1013.89" width="2027.78" height="2027.78"><div xmlns="http://www.w3.org/1999/xhtml" style="background:conic-gradient(from 90deg,rgba(203, 218, 244, 1) 0deg,rgba(155, 187, 245, 1) 62.1642deg,rgba(170, 196, 245, 1) 204.754deg,rgba(147, 181, 245, 1) 271.298deg,rgba(211, 223, 244, 1) 350.125deg,rgba(203, 218, 244, 1) 360deg);height:100%;width:100%;opacity:0.5"></div></foreignObject></g></g><path d="M120.85 136.043L120.357 135.999L120.355 136.021V136.043H120.85ZM226.15 136.043H226.644V136.021L226.642 135.999L226.15 136.043ZM122.333 146.919L121.851 147.029L121.855 147.049L121.862 147.069L122.333 146.919ZM224.667 146.919L225.138 147.069L225.144 147.049L225.149 147.029L224.667 146.919ZM121.097 141.481L120.605 141.529L120.608 141.56L120.615 141.591L121.097 141.481ZM225.902 141.481L226.385 141.591L226.391 141.56L226.394 141.529L225.902 141.481ZM120.85 138.935H120.355V138.959L120.358 138.983L120.85 138.935ZM226.15 138.935L226.642 138.983L226.644 138.959V138.935H226.15ZM209.962 158.656L209.925 158.163L209.962 158.656ZM206.627 158.577L206.688 158.087L206.627 158.577ZM193.614 160.267L193.443 159.803L193.614 160.267ZM153.385 160.267L153.214 160.731L153.385 160.267ZM140.372 158.577L140.312 158.087L140.372 158.577ZM137.037 158.656L136.999 159.149L137.037 158.656ZM194.993 159.759L195.164 160.223L194.993 159.759ZM205.953 158.494L206.013 158.003L205.953 158.494ZM141.047 158.494L140.986 158.003L141.047 158.494ZM152.007 159.759L151.836 160.223L152.007 159.759ZM224.625 147.049L224.154 146.9L224.625 147.049ZM169.473 91.55V92.0444H177.526V91.55V91.0557H169.473V91.55ZM141.047 158.494L140.986 158.003L140.312 158.087L140.372 158.577L140.433 159.068L141.108 158.984L141.047 158.494ZM153.385 160.267L153.556 159.803L152.178 159.295L152.007 159.759L151.836 160.223L153.214 160.731L153.385 160.267ZM194.993 159.759L194.822 159.295L193.443 159.803L193.614 160.267L193.785 160.731L195.164 160.223L194.993 159.759ZM206.627 158.577L206.688 158.087L206.013 158.003L205.953 158.494L205.892 158.984L206.566 159.068L206.627 158.577ZM122.374 147.049L122.845 146.9L122.804 146.769L122.333 146.919L121.862 147.069L121.903 147.199L122.374 147.049ZM224.667 146.919L224.195 146.769L224.154 146.9L224.625 147.049L225.096 147.199L225.138 147.069L224.667 146.919ZM122.333 146.919L122.815 146.809L121.579 141.371L121.097 141.481L120.615 141.591L121.851 147.029L122.333 146.919ZM225.902 141.481L225.42 141.371L224.184 146.809L224.667 146.919L225.149 147.029L226.385 141.591L225.902 141.481ZM121.097 141.481L121.589 141.433L121.342 138.887L120.85 138.935L120.358 138.983L120.605 141.529L121.097 141.481ZM120.85 138.935H121.344V136.043H120.85H120.355V138.935H120.85ZM226.15 136.043H225.655V138.935H226.15H226.644V136.043H226.15ZM226.15 138.935L225.658 138.887L225.41 141.433L225.902 141.481L226.394 141.529L226.642 138.983L226.15 138.935ZM209.962 158.656L209.925 158.163C208.846 158.246 207.761 158.22 206.688 158.087L206.627 158.577L206.566 159.068C207.705 159.209 208.856 159.236 210 159.149L209.962 158.656ZM193.614 160.267L193.443 159.803C189.226 161.358 184.593 161.358 180.375 159.803L180.204 160.267L180.033 160.731C184.471 162.367 189.347 162.367 193.785 160.731L193.614 160.267ZM166.795 160.267L166.624 159.803C162.407 161.358 157.773 161.358 153.556 159.803L153.385 160.267L153.214 160.731C157.652 162.367 162.528 162.367 166.966 160.731L166.795 160.267ZM140.372 158.577L140.312 158.087C139.238 158.22 138.153 158.246 137.075 158.163L137.037 158.656L136.999 159.149C138.144 159.236 139.294 159.209 140.433 159.068L140.372 158.577ZM194.993 159.759L195.164 160.223C198.59 158.96 202.268 158.535 205.892 158.984L205.953 158.494L206.013 158.003C202.233 157.534 198.396 157.977 194.822 159.295L194.993 159.759ZM141.047 158.494L141.108 158.984C144.731 158.535 148.41 158.96 151.836 160.223L152.007 159.759L152.178 159.295C148.604 157.977 144.766 157.534 140.986 158.003L141.047 158.494ZM166.795 160.267L166.966 160.731C171.183 159.176 175.816 159.176 180.033 160.731L180.204 160.267L180.375 159.803C175.938 158.167 171.062 158.167 166.624 159.803L166.795 160.267ZM137.037 158.656L137.075 158.163C130.48 157.658 124.851 153.202 122.845 146.9L122.374 147.049L121.903 147.199C124.031 153.886 130.003 158.613 136.999 159.149L137.037 158.656ZM209.962 158.656L210 159.149C216.997 158.613 222.969 153.886 225.096 147.199L224.625 147.049L224.154 146.9C222.148 153.202 216.52 157.658 209.925 158.163L209.962 158.656ZM177.526 91.55V92.0444C202.555 92.0444 223.441 111.156 225.657 136.087L226.15 136.043L226.642 135.999C224.381 110.559 203.067 91.0557 177.526 91.0557V91.55ZM169.473 91.55V91.0557C143.932 91.0557 122.619 110.559 120.357 135.999L120.85 136.043L121.342 136.087C123.558 111.156 144.444 92.0444 169.473 92.0444V91.55Z" data-figma-gradient-fill="{&#34;type&#34;:&#34;GRADIENT_ANGULAR&#34;,&#34;stops&#34;:[{&#34;color&#34;:{&#34;r&#34;:0.61056268215179443,&#34;g&#34;:0.73340690135955811,&#34;b&#34;:0.96195411682128906,&#34;a&#34;:1.0},&#34;position&#34;:0.17267820239067078},{&#34;color&#34;:{&#34;r&#34;:0.66860115528106689,&#34;g&#34;:0.77100688219070435,&#34;b&#34;:0.96152913570404053,&#34;a&#34;:1.0},&#34;position&#34;:0.56876212358474731},{&#34;color&#34;:{&#34;r&#34;:0.58012866973876953,&#34;g&#34;:0.71369034051895142,&#34;b&#34;:0.96217697858810425,&#34;a&#34;:1.0},&#34;position&#34;:0.75360476970672607},{&#34;color&#34;:{&#34;r&#34;:0.82889443635940552,&#34;g&#34;:0.87485229969024658,&#34;b&#34;:0.96035534143447876,&#34;a&#34;:1.0},&#34;position&#34;:0.97257059812545776}],&#34;stopsVar&#34;:[{&#34;color&#34;:{&#34;r&#34;:0.61056268215179443,&#34;g&#34;:0.73340690135955811,&#34;b&#34;:0.96195411682128906,&#34;a&#34;:1.0},&#34;position&#34;:0.17267820239067078},{&#34;color&#34;:{&#34;r&#34;:0.66860115528106689,&#34;g&#34;:0.77100688219070435,&#34;b&#34;:0.96152913570404053,&#34;a&#34;:1.0},&#34;position&#34;:0.56876212358474731},{&#34;color&#34;:{&#34;r&#34;:0.58012866973876953,&#34;g&#34;:0.71369034051895142,&#34;b&#34;:0.96217697858810425,&#34;a&#34;:1.0},&#34;position&#34;:0.75360476970672607},{&#34;color&#34;:{&#34;r&#34;:0.82889443635940552,&#34;g&#34;:0.87485229969024658,&#34;b&#34;:0.96035534143447876,&#34;a&#34;:1.0},&#34;position&#34;:0.97257059812545776}],&#34;transform&#34;:{&#34;m00&#34;:6.4477659898808191e-15,&#34;m01&#34;:-105.30000305175781,&#34;m02&#34;:226.14961242675781,&#34;m10&#34;:71.188728332519531,&#34;m11&#34;:4.3590526221698629e-15,&#34;m12&#34;:91.5500488281250},&#34;opacity&#34;:0.50,&#34;blendMode&#34;:&#34;NORMAL&#34;,&#34;visible&#34;:true}" mask="url(#path-20-inside-1_3546_19800)"/>
</g>
<path d="M193.331 106.445L195.449 101.084L197.732 107.011L205.051 103.255L200.446 109.947L207.561 113.45L198.977 114.42L198.738 119.611L194.979 113.66L186.586 114.866L191.22 109.676L187.053 103.355L193.331 106.445Z" fill="url(#paint4_linear_3546_19800)" fill-opacity="0.7"/>
<path d="M134.905 123.179L134.205 126.931L137.572 124.412L140.352 129.095L140.127 123.722L145.349 124.264L140.879 120.697L142.573 117.703L138.37 119.715L134.09 116.084L134.86 120.625L130.298 122.701L134.905 123.179Z" fill="url(#paint5_linear_3546_19800)" fill-opacity="0.7"/>
<circle cx="166.579" cy="132.335" r="2.71901" fill="#172454"/>
<circle cx="181.905" cy="132.335" r="2.71901" fill="#172454"/>
<path d="M176.709 137.167C177.181 136.891 177.786 137.051 178.061 137.522C178.337 137.994 178.177 138.6 177.705 138.875C175.565 140.123 172.918 140.123 170.777 138.875C170.305 138.6 170.146 137.994 170.421 137.522C170.696 137.051 171.302 136.891 171.773 137.167C173.298 138.056 175.184 138.056 176.709 137.167Z" fill="#172454"/>
<path d="M140.268 82.9192C140.247 81.8745 141.451 81.2765 142.271 81.9242L159.981 95.9119C160.469 96.2968 160.528 97.0138 160.111 97.4739C155.392 102.682 148.88 105.917 141.878 106.53C141.259 106.584 140.724 106.103 140.712 105.483L140.268 82.9192Z" fill="#FFD166"/>
<mask id="mask0_3546_19800" style="mask-type:alpha" maskUnits="userSpaceOnUse" x="140" y="81" width="21" height="26">
<path d="M140.269 82.9192C140.248 81.8745 141.452 81.2765 142.272 81.9242L159.982 95.9119C160.47 96.2968 160.529 97.0138 160.112 97.4739C155.393 102.682 148.881 105.917 141.879 106.53C141.26 106.584 140.725 106.103 140.713 105.483L140.269 82.9192Z" fill="#D9D9D9"/>
</mask>
<g mask="url(#mask0_3546_19800)">
<rect width="22.7236" height="1.81748" transform="matrix(0.552885 -0.833258 0.923534 0.383515 136.068 97.6891)" fill="#FFF6E2"/>
<rect width="22.7236" height="1.81748" transform="matrix(0.552885 -0.833258 0.923534 0.383515 139.151 103.9)" fill="#FFF6E2"/>
<rect width="22.7236" height="1.81748" transform="matrix(0.552885 -0.833258 0.923534 0.383515 144.238 109.251)" fill="#FFF6E2"/>
</g>
<path d="M139.014 78.6245C139.042 78.3388 139.359 78.1809 139.603 78.332C139.787 78.4453 140.027 78.3873 140.138 78.203C140.287 77.9573 140.642 77.953 140.796 78.195C140.912 78.3766 141.154 78.4287 141.334 78.3109C141.574 78.1539 141.896 78.304 141.93 78.589C141.956 78.8028 142.151 78.9547 142.364 78.9268C142.649 78.8897 142.874 79.1644 142.781 79.436C142.711 79.6398 142.821 79.8613 143.025 79.9288C143.298 80.0189 143.381 80.3638 143.18 80.5682C143.028 80.7215 143.031 80.9688 143.186 81.1185C143.393 81.3178 143.318 81.6647 143.048 81.7614C142.845 81.8339 142.74 82.058 142.815 82.2601C142.915 82.5293 142.697 82.8094 142.411 82.7792C142.197 82.7565 142.006 82.9131 141.985 83.1275C141.958 83.4133 141.64 83.5711 141.396 83.4201C141.213 83.3067 140.973 83.3647 140.861 83.5491C140.713 83.7948 140.358 83.7991 140.204 83.5571C140.088 83.3755 139.846 83.3234 139.666 83.4412C139.425 83.5981 139.104 83.4481 139.07 83.1631C139.044 82.9492 138.849 82.7974 138.635 82.8252C138.351 82.8624 138.126 82.5876 138.219 82.3161C138.289 82.1123 138.179 81.8908 137.974 81.8232C137.702 81.7332 137.619 81.3882 137.82 81.1839C137.971 81.0305 137.968 80.7832 137.813 80.6336C137.607 80.4342 137.682 80.0873 137.952 79.9907C138.155 79.9182 138.259 79.694 138.185 79.492C138.085 79.2228 138.303 78.9427 138.588 78.9728C138.803 78.9955 138.994 78.8389 139.014 78.6245Z" fill="#F56666"/>
</g>
<path d="M128.947 196.816L127.224 209.227" stroke="white" stroke-width="0.735069"/>
<path d="M165.49 196.816L163.767 209.227" stroke="white" stroke-width="0.735069"/>
<path d="M206.17 196.816L204.446 209.227" stroke="white" stroke-width="0.735069"/>
<g filter="url(#filter4_f_3546_19800)">
<circle cx="244.115" cy="241.962" r="15.9783" fill="url(#paint6_radial_3546_19800)"/>
</g>
<path d="M120.013 207.593C120.184 206.11 121.44 204.99 122.934 204.99H131.475C133.233 204.99 134.598 206.522 134.396 208.268L128.982 255.096C128.811 256.579 127.555 257.699 126.062 257.699H117.52C115.763 257.699 114.398 256.167 114.6 254.421L120.013 207.593Z" fill="url(#paint7_linear_3546_19800)"/>
<mask id="mask1_3546_19800" style="mask-type:alpha" maskUnits="userSpaceOnUse" x="114" y="204" width="21" height="54">
<path d="M120.313 204.99H134.774L128.681 257.699H114.22L120.313 204.99Z" fill="#86C9FF"/>
</mask>
<g mask="url(#mask1_3546_19800)">
<g filter="url(#filter5_f_3546_19800)">
<rect width="26.6309" height="5.49724" transform="matrix(0.941415 -0.337251 0.239008 0.971018 112.272 218.354)" fill="white"/>
</g>
<g filter="url(#filter6_f_3546_19800)">
<rect width="26.6309" height="5.49724" transform="matrix(0.941415 -0.337251 0.239008 0.971018 112.272 233.166)" fill="white"/>
</g>
<g filter="url(#filter7_f_3546_19800)">
<rect width="26.6309" height="5.49724" transform="matrix(0.941415 -0.337251 0.239008 0.971018 112.272 247.979)" fill="white"/>
</g>
</g>
<path d="M156.566 207.593C156.737 206.11 157.993 204.99 159.486 204.99H168.028C169.785 204.99 171.15 206.522 170.948 208.268L165.535 255.096C165.364 256.579 164.108 257.699 162.614 257.699H154.073C152.316 257.699 150.951 256.167 151.152 254.421L156.566 207.593Z" fill="url(#paint8_linear_3546_19800)"/>
<mask id="mask2_3546_19800" style="mask-type:alpha" maskUnits="userSpaceOnUse" x="150" y="204" width="22" height="54">
<path d="M156.867 204.99H171.328L165.235 257.699H150.774L156.867 204.99Z" fill="#86C9FF"/>
</mask>
<g mask="url(#mask2_3546_19800)">
<g filter="url(#filter8_f_3546_19800)">
<rect width="26.6309" height="5.49724" transform="matrix(0.941415 -0.337251 0.239008 0.971018 148.827 218.354)" fill="white"/>
</g>
<g filter="url(#filter9_f_3546_19800)">
<rect width="26.6309" height="5.49724" transform="matrix(0.941415 -0.337251 0.239008 0.971018 148.827 233.166)" fill="white"/>
</g>
<g filter="url(#filter10_f_3546_19800)">
<rect width="26.6309" height="5.49724" transform="matrix(0.941415 -0.337251 0.239008 0.971018 148.827 247.979)" fill="white"/>
</g>
</g>
<path d="M197.029 207.593C197.2 206.11 198.456 204.99 199.949 204.99H208.491C210.248 204.99 211.613 206.522 211.411 208.268L205.998 255.096C205.827 256.579 204.57 257.699 203.077 257.699H194.536C192.778 257.699 191.413 256.167 191.615 254.421L197.029 207.593Z" fill="url(#paint9_linear_3546_19800)"/>
<mask id="mask3_3546_19800" style="mask-type:alpha" maskUnits="userSpaceOnUse" x="191" y="204" width="21" height="54">
<path d="M197.329 204.99H211.79L205.697 257.699H191.236L197.329 204.99Z" fill="#86C9FF"/>
</mask>
<g mask="url(#mask3_3546_19800)">
<g filter="url(#filter11_f_3546_19800)">
<rect width="26.6309" height="5.49724" transform="matrix(0.941415 -0.337251 0.239008 0.971018 189.288 218.354)" fill="white"/>
</g>
<g filter="url(#filter12_f_3546_19800)">
<rect width="26.6309" height="5.49724" transform="matrix(0.941415 -0.337251 0.239008 0.971018 189.288 233.166)" fill="white"/>
</g>
<g filter="url(#filter13_f_3546_19800)">
<rect width="26.6309" height="5.49724" transform="matrix(0.941415 -0.337251 0.239008 0.971018 189.288 247.979)" fill="white"/>
</g>
</g>
<ellipse cx="81.4637" cy="259.7" rx="10.7284" ry="12.2687" fill="white"/>
<ellipse cx="98.6786" cy="259.7" rx="10.7284" ry="12.2687" fill="white"/>
<ellipse cx="115.892" cy="259.7" rx="10.7284" ry="12.2687" fill="white"/>
<ellipse cx="133.107" cy="259.7" rx="10.7284" ry="12.2687" fill="white"/>
<ellipse cx="150.321" cy="259.7" rx="10.7284" ry="12.2687" fill="white"/>
<ellipse cx="167.536" cy="259.7" rx="10.7284" ry="12.2687" fill="white"/>
<ellipse cx="184.75" cy="259.7" rx="10.7284" ry="12.2687" fill="white"/>
<ellipse cx="201.965" cy="259.7" rx="10.7284" ry="12.2687" fill="white"/>
<ellipse cx="219.179" cy="259.7" rx="10.7284" ry="12.2687" fill="white"/>
<ellipse cx="236.393" cy="259.7" rx="10.7284" ry="12.2687" fill="white"/>
<ellipse cx="253.607" cy="259.7" rx="10.7284" ry="12.2687" fill="white"/>
<path d="M281.543 259.153C278.792 261.151 281.131 263.595 280.386 265.265C278.612 269.244 274.995 271.969 270.822 271.969C264.897 271.969 260.094 266.476 260.094 259.7C260.094 252.924 264.897 247.431 270.822 247.431C276.747 247.431 281.543 252.377 281.543 259.153Z" fill="white"/>
<foreignObject x="52.6493" y="251.973" width="236.152" height="76.7804"><div xmlns="http://www.w3.org/1999/xhtml" style="backdrop-filter:blur(3.68px);clip-path:url(#bgblur_3_3546_19800_clip_path);height:100%;width:100%"></div></foreignObject><path data-figma-bg-blur-radius="7.35069" d="M70.651 259.324H281.45L270.565 321.403H60L70.651 259.324Z" fill="url(#paint10_linear_3546_19800)" fill-opacity="0.6"/>
<rect x="247.749" y="220.169" width="4.1887" height="11.5067" rx="1.47014" transform="rotate(29.516 247.749 220.169)" fill="#512517"/>
<g filter="url(#filter15_f_3546_19800)">
<path d="M128.832 185L130.506 192.561L138.306 194.017L132.387 196.261L134.874 202.441L128.832 197.969L123.227 201.505L125.277 196.261L119.587 190.897L126.635 191.96L128.832 185Z" fill="url(#paint11_linear_3546_19800)"/>
</g>
<g filter="url(#filter16_f_3546_19800)">
<path d="M165.376 185L167.033 191.328L174.683 190.151L169.257 196.261L171.417 202.441L165.376 198.73L159.77 201.505L160.763 196.261L156.182 193.254L163.179 191.96L165.376 185Z" fill="url(#paint12_linear_3546_19800)"/>
</g>
<g filter="url(#filter17_f_3546_19800)">
<path d="M206.267 187.642L204.846 194.058L198.229 195.293L203.251 197.197L201.141 202.44L206.267 198.646L211.023 201.646L209.283 197.197L214.111 192.646L208.131 193.548L206.267 187.642Z" fill="url(#paint13_linear_3546_19800)"/>
</g>
<path d="M70.804 259.134H281.53L274.905 296.736L64.3691 296.797L70.804 259.134Z" fill="url(#paint14_linear_3546_19800)"/>
<rect x="212" y="263" width="111" height="35.3125" rx="17.6562" fill="#172454"/>
<path d="M236.304 277.232C236.304 278.583 237.09 279.935 238.731 280.556L237.918 281.728C236.807 281.301 236.035 280.508 235.586 279.535C235.131 280.652 234.317 281.604 233.131 282.101L232.303 280.928C234.014 280.17 234.814 278.611 234.828 277.232V275.687H236.304V277.232ZM243.077 274.928V282.57H241.614V279.328H240.373V282.184H238.938V275.162H240.373V278.073H241.614V274.928H243.077ZM238.869 282.777C241.476 282.777 243.132 283.632 243.146 285.067C243.132 286.501 241.476 287.37 238.869 287.37C236.235 287.37 234.593 286.501 234.593 285.067C234.593 283.632 236.235 282.777 238.869 282.777ZM238.869 283.935C237.145 283.935 236.124 284.335 236.124 285.067C236.124 285.811 237.145 286.198 238.869 286.198C240.58 286.198 241.601 285.811 241.601 285.067C241.601 284.335 240.58 283.935 238.869 283.935ZM247.884 275.314C249.774 275.314 251.181 276.487 251.195 278.128C251.181 279.783 249.774 280.942 247.884 280.942C245.981 280.942 244.574 279.783 244.574 278.128C244.574 276.487 245.981 275.314 247.884 275.314ZM247.884 276.583C246.836 276.583 246.064 277.176 246.064 278.128C246.064 279.094 246.836 279.701 247.884 279.701C248.933 279.701 249.705 279.094 249.705 278.128C249.705 277.176 248.933 276.583 247.884 276.583ZM254.74 274.914V281.218H253.195V274.914H254.74ZM254.74 281.756V285.011H247.995V286.018H255.112V287.232H246.491V283.88H253.209V282.956H246.464V281.756H254.74ZM270.742 281.094V282.322H265.804V283.508H269.349V287.356H267.818V284.735H260.631V283.508H264.287V282.322H259.376V281.094H270.742ZM265.804 274.9V276.087H269.625V277.287H265.914C266.08 278.349 267.542 279.218 270.177 279.411L269.694 280.57C267.473 280.383 265.825 279.694 265.045 278.611C264.266 279.694 262.611 280.383 260.397 280.57L259.914 279.411C262.521 279.218 263.997 278.349 264.176 277.287H260.493V276.087H264.287V274.9H265.804ZM281.081 274.914V279.88H282.999V281.149H281.081V287.384H279.564V274.914H281.081ZM278.598 276.832V278.059H271.246V276.832H274.198V275.094H275.729V276.832H278.598ZM274.971 278.873C276.764 278.873 278.102 280.087 278.102 281.811C278.102 283.535 276.764 284.735 274.971 284.735C273.15 284.735 271.812 283.535 271.826 281.811C271.812 280.087 273.15 278.873 274.971 278.873ZM274.971 280.128C273.991 280.128 273.288 280.79 273.288 281.811C273.288 282.832 273.991 283.48 274.971 283.466C275.922 283.48 276.626 282.832 276.64 281.811C276.626 280.79 275.922 280.128 274.971 280.128ZM289.338 276.901V278.128H283.227V276.901H285.544V275.273H287.062V276.901H289.338ZM286.303 278.79C287.889 278.79 289.02 279.99 289.02 281.687C289.02 283.411 287.889 284.625 286.303 284.625C284.73 284.625 283.572 283.411 283.585 281.687C283.572 279.99 284.73 278.79 286.303 278.79ZM286.303 280.059C285.489 280.059 284.924 280.708 284.937 281.687C284.924 282.694 285.489 283.328 286.303 283.315C287.103 283.328 287.669 282.694 287.669 281.687C287.669 280.708 287.103 280.059 286.303 280.059ZM293.972 274.914V287.384H292.51V281.287H291.296V286.818H289.862V275.176H291.296V280.046H292.51V274.914H293.972ZM297.759 276.169L297.608 283.218H296.049L295.883 276.169H297.759ZM296.835 286.267C296.242 286.267 295.759 285.784 295.759 285.191C295.759 284.611 296.242 284.129 296.835 284.129C297.401 284.129 297.897 284.611 297.897 285.191C297.897 285.784 297.401 286.267 296.835 286.267ZM301.588 276.169L301.436 283.218H299.877L299.712 276.169H301.588ZM300.664 286.267C300.07 286.267 299.588 285.784 299.588 285.191C299.588 284.611 300.07 284.129 300.664 284.129C301.229 284.129 301.726 284.611 301.726 285.191C301.726 285.784 301.229 286.267 300.664 286.267Z" fill="white"/>
</g>
<defs>
<filter id="filter0_f_3546_19800" x="92.6715" y="180.85" width="36.9636" height="41.2977" filterUnits="userSpaceOnUse" color-interpolation-filters="sRGB">
<feFlood flood-opacity="0" result="BackgroundImageFix"/>
<feBlend mode="normal" in="SourceGraphic" in2="BackgroundImageFix" result="shape"/>
<feGaussianBlur stdDeviation="1.22234" result="effect1_foregroundBlur_3546_19800"/>
</filter>
<filter id="filter1_f_3546_19800" x="236.812" y="2.43492" width="102.283" height="116.038" filterUnits="userSpaceOnUse" color-interpolation-filters="sRGB">
<feFlood flood-opacity="0" result="BackgroundImageFix"/>
<feBlend mode="normal" in="SourceGraphic" in2="BackgroundImageFix" result="shape"/>
<feGaussianBlur stdDeviation="1.83082" result="effect1_foregroundBlur_3546_19800"/>
</filter>
<filter id="filter2_f_3546_19800" x="3.80532" y="225.563" width="67.155" height="59.2764" filterUnits="userSpaceOnUse" color-interpolation-filters="sRGB">
<feFlood flood-opacity="0" result="BackgroundImageFix"/>
<feBlend mode="normal" in="SourceGraphic" in2="BackgroundImageFix" result="shape"/>
<feGaussianBlur stdDeviation="1.22234" result="effect1_foregroundBlur_3546_19800"/>
</filter>
<clipPath id="bgblur_2_3546_19800_clip_path" transform="translate(-118.51 -89.21)"><path d="M120.85 136.043C123.088 110.858 144.188 91.55 169.473 91.55H177.526C202.811 91.55 223.911 110.858 226.15 136.043V138.935L225.902 141.481L224.667 146.919L224.625 147.049C222.559 153.544 216.758 158.136 209.962 158.656C208.851 158.741 207.733 158.715 206.627 158.577L205.953 158.494C202.251 158.035 198.493 158.468 194.993 159.759L193.614 160.267C189.287 161.862 184.532 161.862 180.204 160.267C175.877 158.672 171.122 158.672 166.795 160.267C162.467 161.862 157.713 161.862 153.385 160.267L152.007 159.759C148.507 158.468 144.749 158.035 141.047 158.494L140.372 158.577C139.266 158.715 138.149 158.741 137.037 158.656C130.241 158.136 124.441 153.544 122.374 147.049L122.333 146.919L121.097 141.481L120.85 138.935V136.043Z"/>
</clipPath><clipPath id="paint3_angular_3546_19800_clip_path"><path d="M120.85 136.043L120.357 135.999L120.355 136.021V136.043H120.85ZM226.15 136.043H226.644V136.021L226.642 135.999L226.15 136.043ZM122.333 146.919L121.851 147.029L121.855 147.049L121.862 147.069L122.333 146.919ZM224.667 146.919L225.138 147.069L225.144 147.049L225.149 147.029L224.667 146.919ZM121.097 141.481L120.605 141.529L120.608 141.56L120.615 141.591L121.097 141.481ZM225.902 141.481L226.385 141.591L226.391 141.56L226.394 141.529L225.902 141.481ZM120.85 138.935H120.355V138.959L120.358 138.983L120.85 138.935ZM226.15 138.935L226.642 138.983L226.644 138.959V138.935H226.15ZM209.962 158.656L209.925 158.163L209.962 158.656ZM206.627 158.577L206.688 158.087L206.627 158.577ZM193.614 160.267L193.443 159.803L193.614 160.267ZM153.385 160.267L153.214 160.731L153.385 160.267ZM140.372 158.577L140.312 158.087L140.372 158.577ZM137.037 158.656L136.999 159.149L137.037 158.656ZM194.993 159.759L195.164 160.223L194.993 159.759ZM205.953 158.494L206.013 158.003L205.953 158.494ZM141.047 158.494L140.986 158.003L141.047 158.494ZM152.007 159.759L151.836 160.223L152.007 159.759ZM224.625 147.049L224.154 146.9L224.625 147.049ZM169.473 91.55V92.0444H177.526V91.55V91.0557H169.473V91.55ZM141.047 158.494L140.986 158.003L140.312 158.087L140.372 158.577L140.433 159.068L141.108 158.984L141.047 158.494ZM153.385 160.267L153.556 159.803L152.178 159.295L152.007 159.759L151.836 160.223L153.214 160.731L153.385 160.267ZM194.993 159.759L194.822 159.295L193.443 159.803L193.614 160.267L193.785 160.731L195.164 160.223L194.993 159.759ZM206.627 158.577L206.688 158.087L206.013 158.003L205.953 158.494L205.892 158.984L206.566 159.068L206.627 158.577ZM122.374 147.049L122.845 146.9L122.804 146.769L122.333 146.919L121.862 147.069L121.903 147.199L122.374 147.049ZM224.667 146.919L224.195 146.769L224.154 146.9L224.625 147.049L225.096 147.199L225.138 147.069L224.667 146.919ZM122.333 146.919L122.815 146.809L121.579 141.371L121.097 141.481L120.615 141.591L121.851 147.029L122.333 146.919ZM225.902 141.481L225.42 141.371L224.184 146.809L224.667 146.919L225.149 147.029L226.385 141.591L225.902 141.481ZM121.097 141.481L121.589 141.433L121.342 138.887L120.85 138.935L120.358 138.983L120.605 141.529L121.097 141.481ZM120.85 138.935H121.344V136.043H120.85H120.355V138.935H120.85ZM226.15 136.043H225.655V138.935H226.15H226.644V136.043H226.15ZM226.15 138.935L225.658 138.887L225.41 141.433L225.902 141.481L226.394 141.529L226.642 138.983L226.15 138.935ZM209.962 158.656L209.925 158.163C208.846 158.246 207.761 158.22 206.688 158.087L206.627 158.577L206.566 159.068C207.705 159.209 208.856 159.236 210 159.149L209.962 158.656ZM193.614 160.267L193.443 159.803C189.226 161.358 184.593 161.358 180.375 159.803L180.204 160.267L180.033 160.731C184.471 162.367 189.347 162.367 193.785 160.731L193.614 160.267ZM166.795 160.267L166.624 159.803C162.407 161.358 157.773 161.358 153.556 159.803L153.385 160.267L153.214 160.731C157.652 162.367 162.528 162.367 166.966 160.731L166.795 160.267ZM140.372 158.577L140.312 158.087C139.238 158.22 138.153 158.246 137.075 158.163L137.037 158.656L136.999 159.149C138.144 159.236 139.294 159.209 140.433 159.068L140.372 158.577ZM194.993 159.759L195.164 160.223C198.59 158.96 202.268 158.535 205.892 158.984L205.953 158.494L206.013 158.003C202.233 157.534 198.396 157.977 194.822 159.295L194.993 159.759ZM141.047 158.494L141.108 158.984C144.731 158.535 148.41 158.96 151.836 160.223L152.007 159.759L152.178 159.295C148.604 157.977 144.766 157.534 140.986 158.003L141.047 158.494ZM166.795 160.267L166.966 160.731C171.183 159.176 175.816 159.176 180.033 160.731L180.204 160.267L180.375 159.803C175.938 158.167 171.062 158.167 166.624 159.803L166.795 160.267ZM137.037 158.656L137.075 158.163C130.48 157.658 124.851 153.202 122.845 146.9L122.374 147.049L121.903 147.199C124.031 153.886 130.003 158.613 136.999 159.149L137.037 158.656ZM209.962 158.656L210 159.149C216.997 158.613 222.969 153.886 225.096 147.199L224.625 147.049L224.154 146.9C222.148 153.202 216.52 157.658 209.925 158.163L209.962 158.656ZM177.526 91.55V92.0444C202.555 92.0444 223.441 111.156 225.657 136.087L226.15 136.043L226.642 135.999C224.381 110.559 203.067 91.0557 177.526 91.0557V91.55ZM169.473 91.55V91.0557C143.932 91.0557 122.619 110.559 120.357 135.999L120.85 136.043L121.342 136.087C123.558 111.156 144.444 92.0444 169.473 92.0444V91.55Z"/></clipPath><filter id="filter4_f_3546_19800" x="225.196" y="223.043" width="37.8376" height="37.8372" filterUnits="userSpaceOnUse" color-interpolation-filters="sRGB">
<feFlood flood-opacity="0" result="BackgroundImageFix"/>
<feBlend mode="normal" in="SourceGraphic" in2="BackgroundImageFix" result="shape"/>
<feGaussianBlur stdDeviation="1.47014" result="effect1_foregroundBlur_3546_19800"/>
</filter>
<filter id="filter5_f_3546_19800" x="109.332" y="206.432" width="32.2653" height="20.1998" filterUnits="userSpaceOnUse" color-interpolation-filters="sRGB">
<feFlood flood-opacity="0" result="BackgroundImageFix"/>
<feBlend mode="normal" in="SourceGraphic" in2="BackgroundImageFix" result="shape"/>
<feGaussianBlur stdDeviation="1.47014" result="effect1_foregroundBlur_3546_19800"/>
</filter>
<filter id="filter6_f_3546_19800" x="109.332" y="221.245" width="32.2653" height="20.1998" filterUnits="userSpaceOnUse" color-interpolation-filters="sRGB">
<feFlood flood-opacity="0" result="BackgroundImageFix"/>
<feBlend mode="normal" in="SourceGraphic" in2="BackgroundImageFix" result="shape"/>
<feGaussianBlur stdDeviation="1.47014" result="effect1_foregroundBlur_3546_19800"/>
</filter>
<filter id="filter7_f_3546_19800" x="109.332" y="236.057" width="32.2653" height="20.1998" filterUnits="userSpaceOnUse" color-interpolation-filters="sRGB">
<feFlood flood-opacity="0" result="BackgroundImageFix"/>
<feBlend mode="normal" in="SourceGraphic" in2="BackgroundImageFix" result="shape"/>
<feGaussianBlur stdDeviation="1.47014" result="effect1_foregroundBlur_3546_19800"/>
</filter>
<filter id="filter8_f_3546_19800" x="145.887" y="206.432" width="32.2653" height="20.1998" filterUnits="userSpaceOnUse" color-interpolation-filters="sRGB">
<feFlood flood-opacity="0" result="BackgroundImageFix"/>
<feBlend mode="normal" in="SourceGraphic" in2="BackgroundImageFix" result="shape"/>
<feGaussianBlur stdDeviation="1.47014" result="effect1_foregroundBlur_3546_19800"/>
</filter>
<filter id="filter9_f_3546_19800" x="145.887" y="221.245" width="32.2653" height="20.1998" filterUnits="userSpaceOnUse" color-interpolation-filters="sRGB">
<feFlood flood-opacity="0" result="BackgroundImageFix"/>
<feBlend mode="normal" in="SourceGraphic" in2="BackgroundImageFix" result="shape"/>
<feGaussianBlur stdDeviation="1.47014" result="effect1_foregroundBlur_3546_19800"/>
</filter>
<filter id="filter10_f_3546_19800" x="145.887" y="236.057" width="32.2653" height="20.1998" filterUnits="userSpaceOnUse" color-interpolation-filters="sRGB">
<feFlood flood-opacity="0" result="BackgroundImageFix"/>
<feBlend mode="normal" in="SourceGraphic" in2="BackgroundImageFix" result="shape"/>
<feGaussianBlur stdDeviation="1.47014" result="effect1_foregroundBlur_3546_19800"/>
</filter>
<filter id="filter11_f_3546_19800" x="186.348" y="206.432" width="32.2653" height="20.1998" filterUnits="userSpaceOnUse" color-interpolation-filters="sRGB">
<feFlood flood-opacity="0" result="BackgroundImageFix"/>
<feBlend mode="normal" in="SourceGraphic" in2="BackgroundImageFix" result="shape"/>
<feGaussianBlur stdDeviation="1.47014" result="effect1_foregroundBlur_3546_19800"/>
</filter>
<filter id="filter12_f_3546_19800" x="186.348" y="221.245" width="32.2653" height="20.1998" filterUnits="userSpaceOnUse" color-interpolation-filters="sRGB">
<feFlood flood-opacity="0" result="BackgroundImageFix"/>
<feBlend mode="normal" in="SourceGraphic" in2="BackgroundImageFix" result="shape"/>
<feGaussianBlur stdDeviation="1.47014" result="effect1_foregroundBlur_3546_19800"/>
</filter>
<filter id="filter13_f_3546_19800" x="186.348" y="236.057" width="32.2653" height="20.1998" filterUnits="userSpaceOnUse" color-interpolation-filters="sRGB">
<feFlood flood-opacity="0" result="BackgroundImageFix"/>
<feBlend mode="normal" in="SourceGraphic" in2="BackgroundImageFix" result="shape"/>
<feGaussianBlur stdDeviation="1.47014" result="effect1_foregroundBlur_3546_19800"/>
</filter>
<clipPath id="bgblur_3_3546_19800_clip_path" transform="translate(-52.6493 -251.973)"><path d="M70.651 259.324H281.45L270.565 321.403H60L70.651 259.324Z"/>
</clipPath><filter id="filter15_f_3546_19800" x="118.117" y="183.53" width="21.659" height="20.3811" filterUnits="userSpaceOnUse" color-interpolation-filters="sRGB">
<feFlood flood-opacity="0" result="BackgroundImageFix"/>
<feBlend mode="normal" in="SourceGraphic" in2="BackgroundImageFix" result="shape"/>
<feGaussianBlur stdDeviation="0.367534" result="effect1_foregroundBlur_3546_19800"/>
</filter>
<filter id="filter16_f_3546_19800" x="154.712" y="183.53" width="21.4413" height="20.3811" filterUnits="userSpaceOnUse" color-interpolation-filters="sRGB">
<feFlood flood-opacity="0" result="BackgroundImageFix"/>
<feBlend mode="normal" in="SourceGraphic" in2="BackgroundImageFix" result="shape"/>
<feGaussianBlur stdDeviation="0.11026" result="effect1_foregroundBlur_3546_19800"/>
</filter>
<filter id="filter17_f_3546_19800" x="195.288" y="184.702" width="21.7634" height="20.6786" filterUnits="userSpaceOnUse" color-interpolation-filters="sRGB">
<feFlood flood-opacity="0" result="BackgroundImageFix"/>
<feBlend mode="normal" in="SourceGraphic" in2="BackgroundImageFix" result="shape"/>
<feGaussianBlur stdDeviation="0.367534" result="effect1_foregroundBlur_3546_19800"/>
</filter>
<linearGradient id="paint0_linear_3546_19800" x1="195.811" y1="143.672" x2="195.811" y2="173.581" gradientUnits="userSpaceOnUse">
<stop stop-color="#EEF4FF"/>
<stop offset="1" stop-color="#DCE6FF"/>
</linearGradient>
<radialGradient id="paint1_radial_3546_19800" cx="0" cy="0" r="1" gradientUnits="userSpaceOnUse" gradientTransform="translate(173.748 129.616) rotate(90) scale(23.7296 39.5493)">
<stop stop-color="#C0DAFF"/>
<stop offset="1" stop-color="#EEF4FF"/>
</radialGradient>
<radialGradient id="paint2_radial_3546_19800" cx="0" cy="0" r="1" gradientUnits="userSpaceOnUse" gradientTransform="translate(173.5 127.144) rotate(90) scale(35.5944 52.65)">
<stop stop-color="#81A7FF"/>
<stop offset="1" stop-color="#E3ECFF"/>
</radialGradient>
<linearGradient id="paint4_linear_3546_19800" x1="181.41" y1="114.88" x2="204.044" y2="102.265" gradientUnits="userSpaceOnUse">
<stop stop-color="#C8DBFF"/>
<stop offset="1" stop-color="#77A6FF"/>
</linearGradient>
<linearGradient id="paint5_linear_3546_19800" x1="135.402" y1="118.938" x2="143.183" y2="127.906" gradientUnits="userSpaceOnUse">
<stop stop-color="#77A6FF"/>
<stop offset="1" stop-color="#C8DBFF"/>
</linearGradient>
<radialGradient id="paint6_radial_3546_19800" cx="0" cy="0" r="1" gradientUnits="userSpaceOnUse" gradientTransform="translate(244.115 235.992) rotate(90) scale(21.948)">
<stop stop-color="#F9494A"/>
<stop offset="1" stop-color="#FF00F2"/>
</radialGradient>
<linearGradient id="paint7_linear_3546_19800" x1="124.498" y1="204.99" x2="124.498" y2="257.699" gradientUnits="userSpaceOnUse">
<stop stop-color="#9AD2FF"/>
<stop offset="1" stop-color="#008EFF"/>
</linearGradient>
<linearGradient id="paint8_linear_3546_19800" x1="161.05" y1="204.99" x2="161.05" y2="257.699" gradientUnits="userSpaceOnUse">
<stop stop-color="#9AD2FF"/>
<stop offset="1" stop-color="#008EFF"/>
</linearGradient>
<linearGradient id="paint9_linear_3546_19800" x1="201.513" y1="204.99" x2="201.513" y2="257.699" gradientUnits="userSpaceOnUse">
<stop stop-color="#9AD2FF"/>
<stop offset="1" stop-color="#008EFF"/>
</linearGradient>
<linearGradient id="paint10_linear_3546_19800" x1="170.775" y1="312.506" x2="170.775" y2="348.611" gradientUnits="userSpaceOnUse">
<stop stop-color="#4777D6"/>
<stop offset="1" stop-color="#B3C8F0"/>
</linearGradient>
<linearGradient id="paint11_linear_3546_19800" x1="128.946" y1="185" x2="128.946" y2="202.441" gradientUnits="userSpaceOnUse">
<stop stop-color="#FFB200"/>
<stop offset="1" stop-color="#FFE6AC"/>
</linearGradient>
<linearGradient id="paint12_linear_3546_19800" x1="165.432" y1="185" x2="165.432" y2="202.441" gradientUnits="userSpaceOnUse">
<stop stop-color="#FFB200"/>
<stop offset="1" stop-color="#FFE6AC"/>
</linearGradient>
<linearGradient id="paint13_linear_3546_19800" x1="206.17" y1="187.642" x2="206.17" y2="202.44" gradientUnits="userSpaceOnUse">
<stop stop-color="#FFB200"/>
<stop offset="1" stop-color="#FFE6AC"/>
</linearGradient>
<linearGradient id="paint14_linear_3546_19800" x1="174.14" y1="258.188" x2="174.14" y2="296.797" gradientUnits="userSpaceOnUse">
<stop stop-color="white"/>
<stop offset="1" stop-color="white" stop-opacity="0"/>
</linearGradient>
<clipPath id="clip0_3546_19800">
<rect width="343" height="320" fill="white"/>
</clipPath>
<clipPath id="clip1_3546_19800">
<rect width="117" height="117" fill="white" transform="translate(115 74)"/>
</clipPath>
</defs>
</svg>
