<svg width="240" height="160" viewBox="0 0 240 160" fill="none" xmlns="http://www.w3.org/2000/svg">
<path d="M76.2016 21.373L74.3965 34.3695" stroke="white" stroke-width="0.769761"/>
<path d="M114.469 21.373L112.664 34.3695" stroke="white" stroke-width="0.769761"/>
<path d="M157.069 21.373L155.264 34.3695" stroke="white" stroke-width="0.769761"/>
<g filter="url(#filter0_f_1786_6869)">
<circle cx="196.805" cy="68.6484" r="16.7324" fill="url(#paint0_radial_1786_6869)"/>
</g>
<path d="M66.8468 32.6591C67.0264 31.1057 68.3418 29.9336 69.9055 29.9336H78.8497C80.6904 29.9336 82.1198 31.5378 81.9084 33.3662L76.2397 82.4039C76.0601 83.9573 74.7447 85.1293 73.181 85.1293H64.2367C62.3961 85.1293 60.9667 83.5252 61.1781 81.6967L66.8468 32.6591Z" fill="url(#paint1_linear_1786_6869)"/>
<mask id="mask0_1786_6869" style="mask-type:alpha" maskUnits="userSpaceOnUse" x="60" y="29" width="23" height="57">
<path d="M67.1624 29.9336H82.3057L75.9251 85.1293H60.7817L67.1624 29.9336Z" fill="#86C9FF"/>
</mask>
<g mask="url(#mask0_1786_6869)">
<g filter="url(#filter1_f_1786_6869)">
<rect width="27.8877" height="5.75669" transform="matrix(0.941415 -0.337251 0.239008 0.971018 58.7417 43.9277)" fill="white"/>
</g>
<g filter="url(#filter2_f_1786_6869)">
<rect width="27.8877" height="5.75669" transform="matrix(0.941415 -0.337251 0.239008 0.971018 58.7417 59.4395)" fill="white"/>
</g>
<g filter="url(#filter3_f_1786_6869)">
<rect width="27.8877" height="5.75669" transform="matrix(0.941415 -0.337251 0.239008 0.971018 58.7417 74.9512)" fill="white"/>
</g>
</g>
<path d="M105.122 32.6591C105.302 31.1057 106.617 29.9336 108.181 29.9336H117.125C118.966 29.9336 120.395 31.5378 120.184 33.3662L114.515 82.4039C114.336 83.9573 113.02 85.1293 111.456 85.1293H102.512C100.672 85.1293 99.2421 83.5252 99.4535 81.6967L105.122 32.6591Z" fill="url(#paint2_linear_1786_6869)"/>
<mask id="mask1_1786_6869" style="mask-type:alpha" maskUnits="userSpaceOnUse" x="99" y="29" width="22" height="57">
<path d="M105.437 29.9336H120.58L114.2 85.1293H99.0562L105.437 29.9336Z" fill="#86C9FF"/>
</mask>
<g mask="url(#mask1_1786_6869)">
<g filter="url(#filter4_f_1786_6869)">
<rect width="27.8877" height="5.75669" transform="matrix(0.941415 -0.337251 0.239008 0.971018 97.0161 43.9277)" fill="white"/>
</g>
<g filter="url(#filter5_f_1786_6869)">
<rect width="27.8877" height="5.75669" transform="matrix(0.941415 -0.337251 0.239008 0.971018 97.0161 59.4395)" fill="white"/>
</g>
<g filter="url(#filter6_f_1786_6869)">
<rect width="27.8877" height="5.75669" transform="matrix(0.941415 -0.337251 0.239008 0.971018 97.0161 74.9512)" fill="white"/>
</g>
</g>
<path d="M147.495 32.6591C147.675 31.1057 148.99 29.9336 150.554 29.9336H159.498C161.339 29.9336 162.768 31.5378 162.557 33.3662L156.888 82.4039C156.709 83.9573 155.393 85.1293 153.829 85.1293H144.885C143.045 85.1293 141.615 83.5252 141.826 81.6967L147.495 32.6591Z" fill="url(#paint3_linear_1786_6869)"/>
<mask id="mask2_1786_6869" style="mask-type:alpha" maskUnits="userSpaceOnUse" x="141" y="29" width="22" height="57">
<path d="M147.81 29.9336H162.953L156.573 85.1293H141.429L147.81 29.9336Z" fill="#86C9FF"/>
</mask>
<g mask="url(#mask2_1786_6869)">
<g filter="url(#filter7_f_1786_6869)">
<rect width="27.8877" height="5.75669" transform="matrix(0.941415 -0.337251 0.239008 0.971018 139.389 43.9277)" fill="white"/>
</g>
<g filter="url(#filter8_f_1786_6869)">
<rect width="27.8877" height="5.75669" transform="matrix(0.941415 -0.337251 0.239008 0.971018 139.389 59.4395)" fill="white"/>
</g>
<g filter="url(#filter9_f_1786_6869)">
<rect width="27.8877" height="5.75669" transform="matrix(0.941415 -0.337251 0.239008 0.971018 139.389 74.9512)" fill="white"/>
</g>
</g>
<ellipse cx="26.4749" cy="87.2247" rx="11.2347" ry="12.8478" fill="white"/>
<ellipse cx="44.5042" cy="87.2247" rx="11.2347" ry="12.8478" fill="white"/>
<ellipse cx="62.5296" cy="87.2247" rx="11.2347" ry="12.8478" fill="white"/>
<ellipse cx="80.557" cy="87.2247" rx="11.2347" ry="12.8478" fill="white"/>
<ellipse cx="98.5843" cy="87.2247" rx="11.2347" ry="12.8478" fill="white"/>
<ellipse cx="116.612" cy="87.2247" rx="11.2347" ry="12.8478" fill="white"/>
<ellipse cx="134.637" cy="87.2247" rx="11.2347" ry="12.8478" fill="white"/>
<ellipse cx="152.664" cy="87.2247" rx="11.2347" ry="12.8478" fill="white"/>
<ellipse cx="170.692" cy="87.2247" rx="11.2347" ry="12.8478" fill="white"/>
<ellipse cx="188.717" cy="87.2247" rx="11.2347" ry="12.8478" fill="white"/>
<ellipse cx="206.746" cy="87.2247" rx="11.2347" ry="12.8478" fill="white"/>
<path d="M235.999 86.6516C233.118 88.7441 235.567 91.3035 234.787 93.0527C232.929 97.2191 229.142 100.072 224.772 100.072C218.567 100.072 213.537 94.3203 213.537 87.2247C213.537 80.1291 218.567 74.377 224.772 74.377C230.977 74.377 235.999 79.556 235.999 86.6516Z" fill="white"/>
<foreignObject x="-3.69761" y="78.8668" width="247.402" height="80.6687"><div xmlns="http://www.w3.org/1999/xhtml" style="backdrop-filter:blur(3.85px);clip-path:url(#bgblur_0_1786_6869_clip_path);height:100%;width:100%"></div></foreignObject><path data-figma-bg-blur-radius="7.69761" d="M15.2592 86.5645H236.007L224.503 151.838H4L15.2592 86.5645Z" fill="url(#paint4_linear_1786_6869)"/>
<rect x="200.611" y="45.8281" width="4.38639" height="12.0497" rx="1.53952" transform="rotate(29.516 200.611 45.8281)" fill="#512517"/>
<g filter="url(#filter11_f_1786_6869)">
<path d="M76.0821 9L77.8351 16.9183L86.0028 18.4429L79.8047 20.7927L82.409 27.264L76.0821 22.5812L70.212 26.2838L72.3595 20.7927L66.4004 15.1758L73.7814 16.2883L76.0821 9Z" fill="url(#paint5_linear_1786_6869)"/>
</g>
<g filter="url(#filter12_f_1786_6869)">
<path d="M114.222 9.35352L115.957 15.9801L123.968 14.7481L118.287 21.1462L120.549 27.6175L114.222 23.7314L108.352 26.6374L109.392 21.1462L104.594 17.9972L111.921 16.6418L114.222 9.35352Z" fill="url(#paint6_linear_1786_6869)"/>
</g>
<g filter="url(#filter13_f_1786_6869)">
<path d="M157.17 11.7656L155.683 18.4841L148.753 19.7777L154.012 21.7715L151.802 27.2622L157.17 23.2889L162.151 26.4306L160.329 21.7715L165.385 17.0057L159.122 17.9496L157.17 11.7656Z" fill="url(#paint7_linear_1786_6869)"/>
</g>
<path d="M15.2396 86.3457H236.005L231.331 112.702L10.8008 112.745L15.2396 86.3457Z" fill="url(#paint8_linear_1786_6869)"/>
<defs>
<filter id="filter0_f_1786_6869" x="176.993" y="48.837" width="39.6229" height="39.6229" filterUnits="userSpaceOnUse" color-interpolation-filters="sRGB">
<feFlood flood-opacity="0" result="BackgroundImageFix"/>
<feBlend mode="normal" in="SourceGraphic" in2="BackgroundImageFix" result="shape"/>
<feGaussianBlur stdDeviation="1.53952" result="effect1_foregroundBlur_1786_6869"/>
</filter>
<filter id="filter1_f_1786_6869" x="55.6627" y="31.4444" width="33.788" height="21.1522" filterUnits="userSpaceOnUse" color-interpolation-filters="sRGB">
<feFlood flood-opacity="0" result="BackgroundImageFix"/>
<feBlend mode="normal" in="SourceGraphic" in2="BackgroundImageFix" result="shape"/>
<feGaussianBlur stdDeviation="1.53952" result="effect1_foregroundBlur_1786_6869"/>
</filter>
<filter id="filter2_f_1786_6869" x="55.6627" y="46.9561" width="33.788" height="21.1522" filterUnits="userSpaceOnUse" color-interpolation-filters="sRGB">
<feFlood flood-opacity="0" result="BackgroundImageFix"/>
<feBlend mode="normal" in="SourceGraphic" in2="BackgroundImageFix" result="shape"/>
<feGaussianBlur stdDeviation="1.53952" result="effect1_foregroundBlur_1786_6869"/>
</filter>
<filter id="filter3_f_1786_6869" x="55.6627" y="62.4678" width="33.788" height="21.1522" filterUnits="userSpaceOnUse" color-interpolation-filters="sRGB">
<feFlood flood-opacity="0" result="BackgroundImageFix"/>
<feBlend mode="normal" in="SourceGraphic" in2="BackgroundImageFix" result="shape"/>
<feGaussianBlur stdDeviation="1.53952" result="effect1_foregroundBlur_1786_6869"/>
</filter>
<filter id="filter4_f_1786_6869" x="93.9371" y="31.4444" width="33.788" height="21.1522" filterUnits="userSpaceOnUse" color-interpolation-filters="sRGB">
<feFlood flood-opacity="0" result="BackgroundImageFix"/>
<feBlend mode="normal" in="SourceGraphic" in2="BackgroundImageFix" result="shape"/>
<feGaussianBlur stdDeviation="1.53952" result="effect1_foregroundBlur_1786_6869"/>
</filter>
<filter id="filter5_f_1786_6869" x="93.9371" y="46.9561" width="33.788" height="21.1522" filterUnits="userSpaceOnUse" color-interpolation-filters="sRGB">
<feFlood flood-opacity="0" result="BackgroundImageFix"/>
<feBlend mode="normal" in="SourceGraphic" in2="BackgroundImageFix" result="shape"/>
<feGaussianBlur stdDeviation="1.53952" result="effect1_foregroundBlur_1786_6869"/>
</filter>
<filter id="filter6_f_1786_6869" x="93.9371" y="62.4678" width="33.788" height="21.1522" filterUnits="userSpaceOnUse" color-interpolation-filters="sRGB">
<feFlood flood-opacity="0" result="BackgroundImageFix"/>
<feBlend mode="normal" in="SourceGraphic" in2="BackgroundImageFix" result="shape"/>
<feGaussianBlur stdDeviation="1.53952" result="effect1_foregroundBlur_1786_6869"/>
</filter>
<filter id="filter7_f_1786_6869" x="136.31" y="31.4444" width="33.788" height="21.1522" filterUnits="userSpaceOnUse" color-interpolation-filters="sRGB">
<feFlood flood-opacity="0" result="BackgroundImageFix"/>
<feBlend mode="normal" in="SourceGraphic" in2="BackgroundImageFix" result="shape"/>
<feGaussianBlur stdDeviation="1.53952" result="effect1_foregroundBlur_1786_6869"/>
</filter>
<filter id="filter8_f_1786_6869" x="136.31" y="46.9561" width="33.788" height="21.1522" filterUnits="userSpaceOnUse" color-interpolation-filters="sRGB">
<feFlood flood-opacity="0" result="BackgroundImageFix"/>
<feBlend mode="normal" in="SourceGraphic" in2="BackgroundImageFix" result="shape"/>
<feGaussianBlur stdDeviation="1.53952" result="effect1_foregroundBlur_1786_6869"/>
</filter>
<filter id="filter9_f_1786_6869" x="136.31" y="62.4678" width="33.788" height="21.1522" filterUnits="userSpaceOnUse" color-interpolation-filters="sRGB">
<feFlood flood-opacity="0" result="BackgroundImageFix"/>
<feBlend mode="normal" in="SourceGraphic" in2="BackgroundImageFix" result="shape"/>
<feGaussianBlur stdDeviation="1.53952" result="effect1_foregroundBlur_1786_6869"/>
</filter>
<clipPath id="bgblur_0_1786_6869_clip_path" transform="translate(3.69761 -78.8668)"><path d="M15.2592 86.5645H236.007L224.503 151.838H4L15.2592 86.5645Z"/>
</clipPath><filter id="filter11_f_1786_6869" x="64.8609" y="7.46048" width="22.6816" height="21.3427" filterUnits="userSpaceOnUse" color-interpolation-filters="sRGB">
<feFlood flood-opacity="0" result="BackgroundImageFix"/>
<feBlend mode="normal" in="SourceGraphic" in2="BackgroundImageFix" result="shape"/>
<feGaussianBlur stdDeviation="0.38488" result="effect1_foregroundBlur_1786_6869"/>
</filter>
<filter id="filter12_f_1786_6869" x="103.054" y="7.81399" width="22.4531" height="21.3427" filterUnits="userSpaceOnUse" color-interpolation-filters="sRGB">
<feFlood flood-opacity="0" result="BackgroundImageFix"/>
<feBlend mode="normal" in="SourceGraphic" in2="BackgroundImageFix" result="shape"/>
<feGaussianBlur stdDeviation="0.115464" result="effect1_foregroundBlur_1786_6869"/>
</filter>
<filter id="filter13_f_1786_6869" x="145.673" y="8.68658" width="22.7904" height="21.6542" filterUnits="userSpaceOnUse" color-interpolation-filters="sRGB">
<feFlood flood-opacity="0" result="BackgroundImageFix"/>
<feBlend mode="normal" in="SourceGraphic" in2="BackgroundImageFix" result="shape"/>
<feGaussianBlur stdDeviation="0.38488" result="effect1_foregroundBlur_1786_6869"/>
</filter>
<radialGradient id="paint0_radial_1786_6869" cx="0" cy="0" r="1" gradientUnits="userSpaceOnUse" gradientTransform="translate(196.805 62.397) rotate(90) scale(22.9839)">
<stop stop-color="#F9494A"/>
<stop offset="1" stop-color="#FF00F2"/>
</radialGradient>
<linearGradient id="paint1_linear_1786_6869" x1="71.5432" y1="29.9336" x2="71.5432" y2="85.1293" gradientUnits="userSpaceOnUse">
<stop stop-color="#9AD2FF"/>
<stop offset="1" stop-color="#008EFF"/>
</linearGradient>
<linearGradient id="paint2_linear_1786_6869" x1="109.819" y1="29.9336" x2="109.819" y2="85.1293" gradientUnits="userSpaceOnUse">
<stop stop-color="#9AD2FF"/>
<stop offset="1" stop-color="#008EFF"/>
</linearGradient>
<linearGradient id="paint3_linear_1786_6869" x1="152.192" y1="29.9336" x2="152.192" y2="85.1293" gradientUnits="userSpaceOnUse">
<stop stop-color="#9AD2FF"/>
<stop offset="1" stop-color="#008EFF"/>
</linearGradient>
<linearGradient id="paint4_linear_1786_6869" x1="120.003" y1="86.5645" x2="120.003" y2="151.76" gradientUnits="userSpaceOnUse">
<stop stop-color="#4777D6"/>
<stop offset="1" stop-color="#B3C8F0" stop-opacity="0"/>
</linearGradient>
<linearGradient id="paint5_linear_1786_6869" x1="76.2016" y1="9" x2="76.2016" y2="27.264" gradientUnits="userSpaceOnUse">
<stop stop-color="#FFB200"/>
<stop offset="1" stop-color="#FFE6AC"/>
</linearGradient>
<linearGradient id="paint6_linear_1786_6869" x1="114.281" y1="9.35352" x2="114.281" y2="27.6175" gradientUnits="userSpaceOnUse">
<stop stop-color="#FFB200"/>
<stop offset="1" stop-color="#FFE6AC"/>
</linearGradient>
<linearGradient id="paint7_linear_1786_6869" x1="157.069" y1="11.7656" x2="157.069" y2="27.2622" gradientUnits="userSpaceOnUse">
<stop stop-color="#FFB200"/>
<stop offset="1" stop-color="#FFE6AC"/>
</linearGradient>
<linearGradient id="paint8_linear_1786_6869" x1="123.403" y1="86.3457" x2="123.403" y2="112.745" gradientUnits="userSpaceOnUse">
<stop stop-color="white"/>
<stop offset="1" stop-color="white" stop-opacity="0"/>
</linearGradient>
</defs>
</svg>
